<?xml version="1.0" encoding="utf-8"?>
<!-- Generator: Adobe Illustrator 17.1.0, SVG Export Plug-In . SVG Version: 6.00 Build 0)  -->
<!DOCTYPE svg PUBLIC "-//W3C//DTD SVG 1.1//EN" "http://www.w3.org/Graphics/SVG/1.1/DTD/svg11.dtd">
<svg version="1.1" id="Layer_1" xmlns="http://www.w3.org/2000/svg" xmlns:xlink="http://www.w3.org/1999/xlink" x="0px" y="0px"
	 viewBox="0 0 960 560" enable-background="new 0 0 960 560" xml:space="preserve">
<g>
	<linearGradient id="SVGID_1_" gradientUnits="userSpaceOnUse" x1="20.9321" y1="302.6439" x2="172.6088" y2="302.6439">
		<stop  offset="0" style="stop-color:#7D0A4A"/>
		<stop  offset="1" style="stop-color:#CB2756"/>
	</linearGradient>
	<path fill="url(#SVGID_1_)" d="M66.7,362.8L83.6,332h39.2l-25.8-48.3l-43.2,79.1h-33l58.5-107.1c4-7.1,9.4-13.3,18.1-13.3
		c8.4,0,14,5.8,18,13.3l57.1,107.1H66.7z"/>
	<linearGradient id="SVGID_2_" gradientUnits="userSpaceOnUse" x1="182.4103" y1="303.6176" x2="298.3816" y2="303.6176">
		<stop  offset="0" style="stop-color:#7D0A4A"/>
		<stop  offset="1" style="stop-color:#CB2756"/>
	</linearGradient>
	<path fill="url(#SVGID_2_)" d="M182.4,362.8v-73.1h28.2V332h32.8c17.4,0,26.7-10.4,26.7-29.6c0-16.8-10.2-27.3-26.7-27.3h-61.1
		l18.1-30.8h42.9c32.2,0,54.9,24.1,54.9,58.1c0,34.5-23.4,60.4-54.9,60.4H182.4z"/>
	<path fill="#FBB50F" d="M312.5,362.8V244.4h28.2V332h70.6l-18.1,30.8H312.5z"/>
	<path fill="#FBB50F" d="M448.8,290.4h72.1l-16.4,26.2h-55.7V332h77.5l-18,30.8h-87.8V244.4h105.6L508,275.2h-59.1V290.4z"/>
	<path fill="#FBB50F" d="M566,362.8l16.9-30.8h39.2l-25.8-48.3l-43.2,79.1h-33l58.5-107.1c4-7.1,9.4-13.3,18.1-13.3
		c8.4,0,14,5.8,18,13.3l57.1,107.1H566z"/>
	<path fill="#FBB50F" d="M681.7,362.8v-73.1h28.2V332h32.8c17.4,0,26.7-10.4,26.7-29.6c0-16.8-10.2-27.3-26.7-27.3h-61.1l18.1-30.8
		h42.9c32.2,0,54.9,24.1,54.9,58.1c0,34.5-23.4,60.4-54.9,60.4H681.7z"/>
	<g>
		
			<linearGradient id="SVGID_3_" gradientUnits="userSpaceOnUse" x1="633.412" y1="349.2598" x2="633.412" y2="158.5775" gradientTransform="matrix(-0.9912 -0.1326 -0.1326 0.9912 1487.6836 99.108)">
			<stop  offset="0" style="stop-color:#7D0A4A"/>
			<stop  offset="1" style="stop-color:#CB2756"/>
		</linearGradient>
		<path fill="url(#SVGID_3_)" d="M825.2,314.2c-0.9-0.6-1.4-1.5-2-2.4c-1.4-1.9-2.8-3.9-4.2-5.8c-0.3-0.4-0.6-0.7-0.9-1.1
			c-0.2-0.2-0.6-0.2-0.8,0c-0.4,0.7-0.9,1.3-1.3,2c-4.9,8.5-9.8,17.1-14.7,25.6c-4.1,7.2-8.2,14.3-12.3,21.5c-0.5,0.9-1,1.9-1.5,2.9
			c0,0.1,0,0.2,0,0.3c0.1,0.1,0.3,0.2,0.5,0.2c0.7-0.2,1.4-0.4,2.2-0.7c4-1.5,8-3,12-4.4c0.6-0.2,1.2-0.5,1.9-0.7
			c0.7-0.2,1.3-0.1,1.9,0.2c0.6,0.3,1.1,0.7,1.7,1c4.5,2.8,8.9,5.6,13.4,8.4c0.6,0.4,1.3,0.8,1.9,1.2c1,0.6,1.6,0.6,1.8-1.1
			c0.1-0.8,0.2-1.6,0.3-2.3c1.6-11.4,3.2-22.7,4.7-34.1c0.5-3.6,1.4-7,2.4-10.4c0.9-3.1,1.8-6.3,2.8-9.4c0.9-3.1,1.8-6.3,2.8-9.4
			c1.1-3.7,2.1-7.4,3.2-11.1c0.2-0.7,0-1.2-0.5-1.5c-1.5-0.9-3.1-1.8-4.6-2.7c-7.5-4.3-14.9-8.7-22.4-13c-1-0.6-1.9-1.2-2.9-1.8
			c-0.2-0.1-0.4-0.4-0.6-0.6c0-0.3,0.1-0.4,0.3-0.3c1.2,0.5,2.4,1,3.6,1.6c5,2.4,10,4.7,15,7.1c0.6,0.3,1.2,0.6,1.8,0.8
			c0.6,0.2,1.1,0.2,1.6-0.2c0.5-0.4,1.1-0.8,1.6-1.2c5.8-4.5,11.7-8.9,17.5-13.4c0.5-0.4,0.9-0.7,1.3-1.1c0.1-0.1,0.1-0.2,0.1-0.3
			c-0.1-0.2-0.2-0.4-0.3-0.4c-2.4-0.3-4.8-0.7-7.2-0.9c-2.9-0.3-5.8-0.5-8.7-0.9c-6.6-0.8-13.2-1.5-19.8-2.3
			c-1.4-0.2-2.8-0.4-4.1-0.7c-0.2,0-0.3-0.2-0.2-0.4c0-0.1,0.1-0.2,0.2-0.2c2.2,0,4.3,0,6.5,0c2.4,0,4.9,0.1,7.3,0.2
			c3.4,0.1,6.7,0.2,10.1,0.2c2.7,0,5.4,0.1,8.1,0.1c2.3,0,4.7,0.1,7,0.1c3.4,0.1,6.7,0.1,10.1,0.2c2.6,0.1,5.2,0.2,7.9,0.2
			c2.7,0.1,5.4,0.1,8.1,0.1c1.2,0,2.4,0.1,3.6,0.1c1.1,0.1,2-0.3,2.8-1.2c3.1-3.3,6.2-6.5,9.3-9.7c8.9-9.3,17.7-18.6,26.6-27.9
			c0.3-0.3,0.5-0.6,0.7-0.9c0-0.1,0.1-0.2,0-0.3c0-0.1-0.1-0.2-0.2-0.2c-0.5,0.1-0.9,0.1-1.4,0.3c-8.4,2.5-16.7,4.9-25.1,7.4
			c-20.2,5.9-40.3,11.9-60.5,17.8c-9.6,2.8-19.2,5.7-28.9,8.5c-1.8,0.5-3.6,1.1-5.5,1.3c0,0-0.1,0-0.1,0l0.2,0
			c0.7-0.7,1.6-1,2.5-1.3c2-0.8,4.1-1.5,6.1-2.3c17.8-6.4,35.6-12.7,53.4-19.1c1.4-0.5,2.9-1,4.3-1.6c0.5-0.2,0.8-0.5,0.9-1.1
			c0.1-0.9,0.2-1.8,0.3-2.7c0.1-0.7,0-1.4,0.1-2.1c0.3-4.3,0.7-8.7,1.1-13c0.1-1.4,0.2-2.8,0.3-4.1c0-0.7,0.1-1.4,0.1-2.1
			c0.3-2.8,0.5-5.7,0.7-8.6c0.2-3.9,0.6-7.9,0.9-11.8c0.1-0.7,0-1.4,0-2.1c0-0.3-0.3-0.7-0.5-0.6c-0.2,0-0.4,0-0.5,0.1
			c-0.8,0.7-1.5,1.5-2.3,2.3c-18,18.3-36,36.6-54.1,55c-4.4,4.5-8.9,9-13.3,13.5c-0.5,0.5-1,0.9-1.5,1.3c0,0-0.2,0-0.3-0.1
			c-0.1,0-0.2-0.2-0.2-0.2c0.1-0.4,0.1-0.8,0.3-1.1c1.3-2.3,2.7-4.6,4-6.9c1.9-3.3,3.8-6.6,5.8-10c0.3-0.6,0.7-1.2,0.9-1.8
			c0.1-0.2-0.1-0.6-0.3-0.7c-0.8-0.5-1.7-0.7-2.6-0.9c-3-0.7-6-1.4-9-2.2c-2.3-0.6-4.5-1.1-6.8-1.6c-1.2-0.3-2.4-0.6-3.5-0.9
			c-1.3-0.3-2.5-0.7-3.8-0.6c-1,0.4-1.6,1.2-2.3,1.8c-2,2-4,3.9-6.1,5.9c-0.3,0.3-0.7,0.7-1,1c-0.6,0.6-1.4,1-2.2,1.2
			c-2,0.5-4,1-6.1,1.4c-7.2,1.7-14.3,3.4-21.5,5c-0.4,0.1-0.7,0.1-1,0.5c0.3,0.4,0.8,0.3,1.2,0.3c2.3,0,4.7,0,7,0
			c2.3,0,4.7,0.1,7,0.1c2.3,0,4.7,0,7,0c1.4,0,2.8,0.1,4.2,0.1c0.8,0,1.5,0.3,2.1,0.7c1.2,0.9,2.5,1.7,3.8,2.5
			c5.2,3.5,10.5,7,15.7,10.4c0.7,0.5,1.4,1,2.1,1.4c1.1,0.6,1.9,1.5,2.5,2.7c1.6,3,3.2,5.9,4.8,8.9c8,14.9,16.1,29.9,24.1,44.8
			c0.5,0.8,0.9,1.7,1.3,2.6C825.3,313.5,825.3,313.9,825.2,314.2C825.2,314.2,825.3,314.2,825.2,314.2L825.2,314.2z"/>
		
			<linearGradient id="SVGID_4_" gradientUnits="userSpaceOnUse" x1="564.4017" y1="281.404" x2="587.9025" y2="281.404" gradientTransform="matrix(-0.9912 -0.1326 -0.1326 0.9912 1487.6836 99.108)">
			<stop  offset="0" style="stop-color:#7D0A4A"/>
			<stop  offset="1" style="stop-color:#CB2756"/>
		</linearGradient>
		<path fill="url(#SVGID_4_)" d="M877.8,312.3c3.1,0.4,6.1,0.8,9.2,1.2c0.6,0.1,1.1,0.1,1.7,0c0.2,0,0.5-0.3,0.6-0.5
			c0.2-0.6,0.4-1.3,0.5-2c0.5-3.5,1-7,1.5-10.6c0.3-1.9,0.5-3.7,0.8-5.6c0.1-0.5,0.1-1,0.1-1.5c0-0.5-0.3-1-0.7-1.1
			c-0.5-0.1-0.9-0.2-1.4-0.3c-1.3-0.2-2.6-0.3-3.9-0.5c-4.5-0.6-9.1-1.2-13.6-1.7c-0.8-0.1-1.7-0.1-2.5-0.2c-0.3,0-0.8,0.3-0.8,0.7
			c-0.1,0.4-0.2,0.8-0.3,1.1c-0.8,5.8-1.6,11.5-2.4,17.3c0,0.3-0.1,0.6-0.1,0.9c0,0.7,0.3,1.2,0.9,1.3c0.7,0.1,1.5,0.2,2.2,0.3
			C872.2,311.6,875,312,877.8,312.3C877.8,312.3,877.8,312.3,877.8,312.3z"/>
		
			<linearGradient id="SVGID_5_" gradientUnits="userSpaceOnUse" x1="528.4175" y1="242.2705" x2="548.4077" y2="242.2705" gradientTransform="matrix(-0.9912 -0.1326 -0.1326 0.9912 1487.6836 99.108)">
			<stop  offset="0" style="stop-color:#7D0A4A"/>
			<stop  offset="1" style="stop-color:#CB2756"/>
		</linearGradient>
		<path fill="url(#SVGID_5_)" d="M923.2,258.7c-2.5-0.3-5-0.6-7.5-1c-0.6-0.1-1.1-0.1-1.7-0.1c-0.2,0-0.5,0.3-0.6,0.5
			c-0.2,0.3-0.3,0.7-0.3,1.1c-0.7,4.8-1.3,9.6-2,14.4c0,0.3,0,0.6,0,0.9c0,0.4,0.3,1,0.8,1.1c0.5,0.1,1.1,0.3,1.6,0.4
			c1.2,0.2,2.4,0.3,3.6,0.5c3.6,0.5,7.2,0.9,10.8,1.4c2.5,0.3,2.7,0,3.1-2.5c0.6-4.3,1.2-8.6,1.8-12.9c0.1-0.6,0.1-1.2,0.1-1.8
			c0-0.2-0.3-0.5-0.5-0.6c-0.5-0.2-1.1-0.3-1.6-0.4C928.2,259.3,925.7,259,923.2,258.7z"/>
		<g>
			<path fill="#FBB50F" d="M883.5,282.6c2.9,0.4,5.7,0.7,8.6,1.1c0.7,0.1,1.5,0.2,2.2,0.2c0.6,0,1-0.3,1.2-1
				c0.2-0.9,0.3-1.8,0.4-2.6c0.7-4.7,1.3-9.4,2-14.1c0.1-1,0.3-2,0.4-2.9c0-0.3,0.1-0.6,0-0.9c-0.1-0.2-0.3-0.6-0.5-0.6
				c-0.7-0.2-1.4-0.4-2.2-0.5c-6.1-0.8-12.2-1.6-18.3-2.4c-0.6-0.1-1.1-0.1-1.7-0.2c-0.2,0-0.4,0-0.6,0.1c-0.2,0.1-0.5,0.3-0.6,0.5
				c-0.2,0.3-0.2,0.8-0.3,1.1c-0.9,6.2-1.7,12.3-2.6,18.5c-0.1,0.5-0.1,1,0,1.5c0,0.2,0.2,0.4,0.3,0.4c0.5,0.2,1.1,0.3,1.6,0.4
				C876.8,281.8,880.1,282.2,883.5,282.6C883.5,282.6,883.5,282.6,883.5,282.6z"/>
			<path fill="#FBB50F" d="M887.6,342.4c2.4,0.3,4.8,0.6,7.2,0.9c0.6,0.1,1.3,0.1,1.9,0.2c0.5,0,0.9-0.4,1-0.9
				c0-0.2,0.1-0.4,0.1-0.6c0.7-5.2,1.4-10.4,2.2-15.5c0-0.3,0.1-0.6,0-0.9c-0.1-0.3-0.2-0.5-0.4-0.7c-0.3-0.2-0.7-0.3-1.1-0.3
				c-5.6-0.7-11.3-1.5-16.9-2.2c-0.4,0-0.8-0.1-1.1,0c-0.2,0.1-0.5,0.3-0.6,0.5c-0.2,0.3-0.2,0.8-0.3,1.1c-0.7,5-1.4,10-2.1,14.9
				c-0.1,0.4-0.1,0.8,0,1.2c0,0.3,0.2,0.6,0.4,0.7c0.4,0.2,0.9,0.3,1.3,0.3C882,341.6,884.8,342,887.6,342.4
				C887.6,342.4,887.6,342.4,887.6,342.4z"/>
			<path fill="#FBB50F" d="M856,291.8c2.2,0.3,4.4,0.6,6.7,0.9c0.3,0,0.6,0,0.8,0c0.3,0,0.8-0.3,0.9-0.6c0.1-0.3,0.2-0.6,0.2-0.9
				c0.6-4.1,1.2-8.2,1.7-12.3c0-0.3,0-0.6,0-0.9c0-0.4-0.3-0.8-0.6-0.9c-0.4-0.1-0.7-0.2-1.1-0.2c-4.4-0.6-8.9-1.1-13.3-1.7
				c-0.4,0-0.8-0.1-1.1,0c-0.2,0-0.5,0.3-0.6,0.5c-0.2,0.2-0.2,0.6-0.2,0.8c-0.6,4.2-1.2,8.4-1.8,12.6c0,0.3-0.1,0.6,0,0.9
				c0.1,0.2,0.2,0.6,0.5,0.6c0.4,0.2,0.9,0.3,1.4,0.3C851.6,291.2,853.8,291.5,856,291.8C856,291.8,856,291.8,856,291.8z"/>
			<path fill="#FBB50F" d="M906.5,320.3c1.9,0.2,3.9,0.5,5.8,0.7c0.6,0.1,1.1,0.1,1.7,0.1c0.4,0,0.9-0.4,1-0.9
				c0.1-0.3,0.2-0.6,0.2-0.9c0.5-3.7,1-7.4,1.6-11.1c0.1-0.4,0-0.8,0-1.2c0-0.4-0.2-0.7-0.6-0.9c-0.3-0.1-0.7-0.3-1.1-0.3
				c-4.3-0.6-8.5-1.1-12.8-1.6c-0.4,0-0.7,0-1.1,0c-0.3,0-0.7,0.4-0.8,0.7c0,0.1-0.1,0.2-0.1,0.3c-0.6,4.2-1.2,8.4-1.8,12.6
				c0,0.2,0,0.4,0,0.6c0.1,0.2,0.2,0.6,0.5,0.7c0.4,0.2,0.9,0.3,1.3,0.4C902.5,319.8,904.5,320,906.5,320.3
				C906.5,320.3,906.5,320.3,906.5,320.3z"/>
			<path fill="#FBB50F" d="M905.9,283.3c-1.7-0.2-3.3-0.4-5-0.6c-0.5-0.1-0.9,0.3-1,0.8c-0.4,3-0.8,6-1.2,9.1
				c-0.1,0.5,0.3,0.9,0.8,1c1.4,0.2,2.8,0.4,4.2,0.6c1.7,0.2,3.3,0.4,5,0.6c0.4,0,0.7,0,1.1,0c0.2,0,0.3-0.2,0.4-0.4
				c0.1-0.2,0.2-0.3,0.2-0.5c0.4-2.9,0.8-5.9,1.2-8.8c0-0.1,0-0.2,0-0.3c0-0.3-0.3-0.8-0.7-0.8C909.3,283.8,907.6,283.6,905.9,283.3
				C905.9,283.4,905.9,283.3,905.9,283.3z"/>
			<path fill="#FBB50F" d="M853.5,313.3c1.5,0.1,3,0.3,4.4,0.4c0.5,0,1.1-0.4,1.2-1c0.4-2.4,0.7-4.9,1.1-7.3c0-0.2,0-0.4,0-0.6
				c0-0.6-0.3-1.2-0.9-1.3c-3-0.6-6-1-9.1-1.2c-0.6,0-1.1,0.4-1.2,1c-0.4,2.6-0.8,5.2-1.1,7.9c-0.1,0.6,0.3,1.2,0.9,1.3
				c0.4,0.1,0.7,0.2,1.1,0.2C851.1,313,852.3,313.2,853.5,313.3C853.5,313.3,853.5,313.3,853.5,313.3z"/>
		</g>
		
			<linearGradient id="SVGID_6_" gradientUnits="userSpaceOnUse" x1="534.9752" y1="313.2393" x2="544.5814" y2="313.2393" gradientTransform="matrix(-0.9912 -0.1326 -0.1326 0.9912 1487.6836 99.108)">
			<stop  offset="0" style="stop-color:#7D0A4A"/>
			<stop  offset="1" style="stop-color:#CB2756"/>
		</linearGradient>
		<path fill="url(#SVGID_6_)" d="M910.7,342.2c1.2,0.2,2.4,0.3,3.6,0.5c0.5,0.1,0.9-0.3,1-0.8c0.5-2.2,0.8-4.4,0.9-6.7
			c0-0.4-0.3-0.8-0.6-0.9c-0.1,0-0.2-0.1-0.3-0.1c-2.4-0.3-4.8-0.6-7.2-0.9c-0.6-0.1-1.1,0.4-1.3,1c-0.5,2.1-0.8,4.2-0.9,6.4
			c0,0.6,0.4,1.1,1,1.2C908.3,342,909.5,342.1,910.7,342.2C910.7,342.3,910.7,342.2,910.7,342.2z"/>
		
			<linearGradient id="SVGID_7_" gradientUnits="userSpaceOnUse" x1="627.9755" y1="301.078" x2="628.1185" y2="301.078" gradientTransform="matrix(-0.9912 -0.1326 -0.1326 0.9912 1487.6836 99.108)">
			<stop  offset="0" style="stop-color:#D49430"/>
			<stop  offset="0.1453" style="stop-color:#E48725"/>
			<stop  offset="0.2453" style="stop-color:#F79521"/>
			<stop  offset="0.5" style="stop-color:#FFE166"/>
			<stop  offset="0.7342" style="stop-color:#FDDF5E"/>
			<stop  offset="1" style="stop-color:#C17429"/>
		</linearGradient>
		<path fill="url(#SVGID_7_)" d="M825.2,314.2L825.2,314.2C825.3,314.2,825.2,314.2,825.2,314.2
			C825.2,314.3,825.2,314.2,825.2,314.2z"/>
		
			<linearGradient id="SVGID_8_" gradientUnits="userSpaceOnUse" x1="662.2123" y1="239.5699" x2="662.4288" y2="239.5699" gradientTransform="matrix(-0.9912 -0.1326 -0.1326 0.9912 1487.6836 99.108)">
			<stop  offset="0" style="stop-color:#D49430"/>
			<stop  offset="0.1453" style="stop-color:#E48725"/>
			<stop  offset="0.2453" style="stop-color:#F79521"/>
			<stop  offset="0.5" style="stop-color:#FFE166"/>
			<stop  offset="0.7342" style="stop-color:#FDDF5E"/>
			<stop  offset="1" style="stop-color:#C17429"/>
		</linearGradient>
		<path fill="url(#SVGID_8_)" d="M799.5,248.7l-0.2,0C799.3,248.7,799.5,248.7,799.5,248.7C799.5,248.7,799.5,248.7,799.5,248.7z"/>
	</g>
	<linearGradient id="SVGID_9_" gradientUnits="userSpaceOnUse" x1="417.675" y1="379" x2="417.675" y2="371">
		<stop  offset="0" style="stop-color:#7D0A4A"/>
		<stop  offset="1" style="stop-color:#CB2756"/>
	</linearGradient>
	<polygon fill-rule="evenodd" clip-rule="evenodd" fill="url(#SVGID_9_)" points="16.9,371 12.5,379 821.5,379 822.8,371 	"/>
	<g>
		<g>
			<path d="M164,420.4c-2.4,1.5-5.6,2.3-9.6,2.3H140v-1.4l2.8-1.5v-27.7l-2.4-1.5v-1.4h14.1c3.8,0,7,0.7,9.4,2.2
				c2.5,1.5,3.7,3.7,3.7,6.6v16C167.6,416.7,166.4,418.9,164,420.4z M150.1,417.7c0,0.4-0.1,0.8-0.3,1c-0.2,0.2-0.6,0.4-1.2,0.5
				l0.1,0.3h5.9c4,0,6-1.9,6-5.7v-16.1c0-3.7-2-5.6-6-5.6h-4.4V417.7z"/>
			<path d="M203.1,421.2v1.4h-12.5v-1.4l2.8-1.5v-27.9l-2.3-1.3v-1.4h11.7v1.4l-2.3,1.3v27.9L203.1,421.2z"/>
			<path d="M239.3,419.9c2.1,0,3.6-0.5,4.5-1.4c0.9-0.9,1.4-2.1,1.4-3.6v-3.7l-3.7-1.7V408h11v14.6H248l-0.7-2.3
				c-0.8,1-1.9,1.7-3.3,2.2c-1.4,0.5-2.9,0.7-4.5,0.7c-4.1,0-7.3-0.8-9.8-2.3c-2.5-1.5-3.7-3.7-3.7-6.6v-16.9c0-2,0.6-3.6,1.9-5
				c1.3-1.3,2.9-2.3,4.9-3c2-0.6,4.1-1,6.3-1c3.6,0,6.2,0.6,7.8,1.8h0.2l0.6-1.3h4.8v9.1h-7.2v-2.7c0-1.2-0.6-2.2-1.8-2.7
				c-1.2-0.6-2.6-0.9-4.3-0.9c-1.8,0-3.2,0.4-4.2,1.3c-1.1,0.9-1.6,2.3-1.6,4.3v16.9C233.2,418,235.2,419.9,239.3,419.9z"/>
			<path d="M287.7,421.2v1.4h-12.5v-1.4l2.8-1.5v-27.9l-2.3-1.3v-1.4h11.7v1.4l-2.3,1.3v27.9L287.7,421.2z"/>
			<path d="M324.1,419.4l2.7,1.5v1.7H314V421l2.8-1.5v-27.2h-4.7l-2.2,5.4h-3.3l0.2-8.5H334l0.3,8.5H331l-2.3-5.4h-4.5V419.4z"/>
			<path d="M355.4,420.2l2.4,0.9v1.5h-9.2v-1.5l2.3-1l10.3-31.2h7.1l10.5,31.1l2.3,1.1v1.5h-11.9v-1.3l2.3-1.1l-2.1-6.6h-11.9
				L355.4,420.2z M358.4,410.8h10l-5-15.8h-0.1L358.4,410.8z"/>
			<path d="M397.8,421.2l2.9-1.5v-27.9l-2.4-1.3v-1.4h11.9v1.4l-2.3,1.3v26c0,0.5-0.5,1-1.5,1.5v0.2h10.3l2.3-4.5h3l0.1,7.5h-24.2
				V421.2z"/>
			<path d="M493.7,421.1v1.5h-10.2v-1.5l2.6-1.3v-27.9l-2.5-1.3v-1.4h9.6c1.7,0,2.8,0.1,3.5,0.4c0.7,0.3,1.2,0.9,1.5,1.9
				c1.2,5,2.2,9.3,2.9,12.9c0.7,3.6,1.4,7.6,2.1,12.1h0.1l5.6-25.2c0.2-0.9,0.6-1.5,1.1-1.7c0.5-0.2,1.5-0.4,2.8-0.4h10v1.4
				l-2.5,1.3v27.9l2.8,1.5v1.4h-12.7v-1.4l2.8-1.5v-22.4v-4.8h-0.2l-7,29.8h-5.8c-0.7,0-1.3-0.1-1.6-0.3c-0.4-0.2-0.6-0.6-0.7-1.1
				c-2.5-11.5-4.6-20.8-6.4-28h-1l0.4,6.1v20.8L493.7,421.1z"/>
			<path d="M544.5,421.2l2.9-1.5v-28l-2.4-1.3v-1.3h23.6v7.5h-3.4l-1.9-4.5h-8.6v12.4h6l1.8-2.6h2.1v8.1h-2.1l-1.8-2.4h-6v10.4
				c0,0.4-0.1,0.7-0.3,1c-0.2,0.2-0.6,0.4-1.2,0.5v0.3H564l2.3-4.5h3.1v7.5h-24.9V421.2z"/>
			<path d="M614.7,420.4c-2.4,1.5-5.6,2.3-9.6,2.3h-14.4v-1.4l2.8-1.5v-27.7l-2.4-1.5v-1.4h14.1c3.8,0,7,0.7,9.4,2.2
				c2.5,1.5,3.7,3.7,3.7,6.6v16C618.3,416.7,617.1,418.9,614.7,420.4z M600.7,417.7c0,0.4-0.1,0.8-0.3,1c-0.2,0.2-0.6,0.4-1.2,0.5
				l0.1,0.3h5.9c4,0,6-1.9,6-5.7v-16.1c0-3.7-2-5.6-6-5.6h-4.4V417.7z"/>
			<path d="M653.7,421.2v1.4h-12.5v-1.4l2.8-1.5v-27.9l-2.3-1.3v-1.4h11.7v1.4l-2.3,1.3v27.9L653.7,421.2z"/>
			<path d="M677.5,420.2l2.4,0.9v1.5h-9.2v-1.5l2.3-1l10.3-31.2h7.1l10.5,31.1l2.3,1.1v1.5h-11.9v-1.3l2.3-1.1l-2.1-6.6h-11.9
				L677.5,420.2z M680.5,410.8h10l-5-15.8h-0.1L680.5,410.8z"/>
		</g>
		<g>
			<linearGradient id="SVGID_10_" gradientUnits="userSpaceOnUse" x1="421.6397" y1="423.1965" x2="421.6397" y2="388.548">
				<stop  offset="0" style="stop-color:#7D0A4A"/>
				<stop  offset="1" style="stop-color:#CB2756"/>
			</linearGradient>
			<path fill="url(#SVGID_10_)" d="M164,420.4c-2.4,1.5-5.6,2.3-9.6,2.3H140v-1.4l2.8-1.5v-27.7l-2.4-1.5v-1.4h14.1
				c3.8,0,7,0.7,9.4,2.2c2.5,1.5,3.7,3.7,3.7,6.6v16C167.6,416.7,166.4,418.9,164,420.4z M150.1,417.7c0,0.4-0.1,0.8-0.3,1
				c-0.2,0.2-0.6,0.4-1.2,0.5l0.1,0.3h5.9c4,0,6-1.9,6-5.7v-16.1c0-3.7-2-5.6-6-5.6h-4.4V417.7z"/>
			<linearGradient id="SVGID_11_" gradientUnits="userSpaceOnUse" x1="421.6397" y1="423.1965" x2="421.6397" y2="388.548">
				<stop  offset="0" style="stop-color:#7D0A4A"/>
				<stop  offset="1" style="stop-color:#CB2756"/>
			</linearGradient>
			<path fill="url(#SVGID_11_)" d="M203.1,421.2v1.4h-12.5v-1.4l2.8-1.5v-27.9l-2.3-1.3v-1.4h11.7v1.4l-2.3,1.3v27.9L203.1,421.2z"
				/>
			<linearGradient id="SVGID_12_" gradientUnits="userSpaceOnUse" x1="421.6397" y1="423.1965" x2="421.6397" y2="388.548">
				<stop  offset="0" style="stop-color:#7D0A4A"/>
				<stop  offset="1" style="stop-color:#CB2756"/>
			</linearGradient>
			<path fill="url(#SVGID_12_)" d="M239.3,419.9c2.1,0,3.6-0.5,4.5-1.4c0.9-0.9,1.4-2.1,1.4-3.6v-3.7l-3.7-1.7V408h11v14.6H248
				l-0.7-2.3c-0.8,1-1.9,1.7-3.3,2.2c-1.4,0.5-2.9,0.7-4.5,0.7c-4.1,0-7.3-0.8-9.8-2.3c-2.5-1.5-3.7-3.7-3.7-6.6v-16.9
				c0-2,0.6-3.6,1.9-5c1.3-1.3,2.9-2.3,4.9-3c2-0.6,4.1-1,6.3-1c3.6,0,6.2,0.6,7.8,1.8h0.2l0.6-1.3h4.8v9.1h-7.2v-2.7
				c0-1.2-0.6-2.2-1.8-2.7c-1.2-0.6-2.6-0.9-4.3-0.9c-1.8,0-3.2,0.4-4.2,1.3c-1.1,0.9-1.6,2.3-1.6,4.3v16.9
				C233.2,418,235.2,419.9,239.3,419.9z"/>
			<linearGradient id="SVGID_13_" gradientUnits="userSpaceOnUse" x1="421.6397" y1="423.1965" x2="421.6397" y2="388.548">
				<stop  offset="0" style="stop-color:#7D0A4A"/>
				<stop  offset="1" style="stop-color:#CB2756"/>
			</linearGradient>
			<path fill="url(#SVGID_13_)" d="M287.7,421.2v1.4h-12.5v-1.4l2.8-1.5v-27.9l-2.3-1.3v-1.4h11.7v1.4l-2.3,1.3v27.9L287.7,421.2z"
				/>
			<linearGradient id="SVGID_14_" gradientUnits="userSpaceOnUse" x1="421.6397" y1="423.1965" x2="421.6397" y2="388.548">
				<stop  offset="0" style="stop-color:#7D0A4A"/>
				<stop  offset="1" style="stop-color:#CB2756"/>
			</linearGradient>
			<path fill="url(#SVGID_14_)" d="M324.1,419.4l2.7,1.5v1.7H314V421l2.8-1.5v-27.2h-4.7l-2.2,5.4h-3.3l0.2-8.5H334l0.3,8.5H331
				l-2.3-5.4h-4.5V419.4z"/>
			<linearGradient id="SVGID_15_" gradientUnits="userSpaceOnUse" x1="421.6397" y1="423.1965" x2="421.6397" y2="388.548">
				<stop  offset="0" style="stop-color:#7D0A4A"/>
				<stop  offset="1" style="stop-color:#CB2756"/>
			</linearGradient>
			<path fill="url(#SVGID_15_)" d="M355.4,420.2l2.4,0.9v1.5h-9.2v-1.5l2.3-1l10.3-31.2h7.1l10.5,31.1l2.3,1.1v1.5h-11.9v-1.3
				l2.3-1.1l-2.1-6.6h-11.9L355.4,420.2z M358.4,410.8h10l-5-15.8h-0.1L358.4,410.8z"/>
			<linearGradient id="SVGID_16_" gradientUnits="userSpaceOnUse" x1="421.6397" y1="423.1965" x2="421.6397" y2="388.548">
				<stop  offset="0" style="stop-color:#7D0A4A"/>
				<stop  offset="1" style="stop-color:#CB2756"/>
			</linearGradient>
			<path fill="url(#SVGID_16_)" d="M397.8,421.2l2.9-1.5v-27.9l-2.4-1.3v-1.4h11.9v1.4l-2.3,1.3v26c0,0.5-0.5,1-1.5,1.5v0.2h10.3
				l2.3-4.5h3l0.1,7.5h-24.2V421.2z"/>
			<linearGradient id="SVGID_17_" gradientUnits="userSpaceOnUse" x1="421.6397" y1="423.1965" x2="421.6397" y2="388.548">
				<stop  offset="0" style="stop-color:#7D0A4A"/>
				<stop  offset="1" style="stop-color:#CB2756"/>
			</linearGradient>
			<path fill="url(#SVGID_17_)" d="M493.7,421.1v1.5h-10.2v-1.5l2.6-1.3v-27.9l-2.5-1.3v-1.4h9.6c1.7,0,2.8,0.1,3.5,0.4
				c0.7,0.3,1.2,0.9,1.5,1.9c1.2,5,2.2,9.3,2.9,12.9c0.7,3.6,1.4,7.6,2.1,12.1h0.1l5.6-25.2c0.2-0.9,0.6-1.5,1.1-1.7
				c0.5-0.2,1.5-0.4,2.8-0.4h10v1.4l-2.5,1.3v27.9l2.8,1.5v1.4h-12.7v-1.4l2.8-1.5v-22.4v-4.8h-0.2l-7,29.8h-5.8
				c-0.7,0-1.3-0.1-1.6-0.3c-0.4-0.2-0.6-0.6-0.7-1.1c-2.5-11.5-4.6-20.8-6.4-28h-1l0.4,6.1v20.8L493.7,421.1z"/>
			<linearGradient id="SVGID_18_" gradientUnits="userSpaceOnUse" x1="421.6397" y1="423.1965" x2="421.6397" y2="388.548">
				<stop  offset="0" style="stop-color:#7D0A4A"/>
				<stop  offset="1" style="stop-color:#CB2756"/>
			</linearGradient>
			<path fill="url(#SVGID_18_)" d="M544.5,421.2l2.9-1.5v-28l-2.4-1.3v-1.3h23.6v7.5h-3.4l-1.9-4.5h-8.6v12.4h6l1.8-2.6h2.1v8.1
				h-2.1l-1.8-2.4h-6v10.4c0,0.4-0.1,0.7-0.3,1c-0.2,0.2-0.6,0.4-1.2,0.5v0.3H564l2.3-4.5h3.1v7.5h-24.9V421.2z"/>
			<linearGradient id="SVGID_19_" gradientUnits="userSpaceOnUse" x1="421.6397" y1="423.1965" x2="421.6397" y2="388.548">
				<stop  offset="0" style="stop-color:#7D0A4A"/>
				<stop  offset="1" style="stop-color:#CB2756"/>
			</linearGradient>
			<path fill="url(#SVGID_19_)" d="M614.7,420.4c-2.4,1.5-5.6,2.3-9.6,2.3h-14.4v-1.4l2.8-1.5v-27.7l-2.4-1.5v-1.4h14.1
				c3.8,0,7,0.7,9.4,2.2c2.5,1.5,3.7,3.7,3.7,6.6v16C618.3,416.7,617.1,418.9,614.7,420.4z M600.7,417.7c0,0.4-0.1,0.8-0.3,1
				c-0.2,0.2-0.6,0.4-1.2,0.5l0.1,0.3h5.9c4,0,6-1.9,6-5.7v-16.1c0-3.7-2-5.6-6-5.6h-4.4V417.7z"/>
			<linearGradient id="SVGID_20_" gradientUnits="userSpaceOnUse" x1="421.6397" y1="423.1965" x2="421.6397" y2="388.548">
				<stop  offset="0" style="stop-color:#7D0A4A"/>
				<stop  offset="1" style="stop-color:#CB2756"/>
			</linearGradient>
			<path fill="url(#SVGID_20_)" d="M653.7,421.2v1.4h-12.5v-1.4l2.8-1.5v-27.9l-2.3-1.3v-1.4h11.7v1.4l-2.3,1.3v27.9L653.7,421.2z"
				/>
			<linearGradient id="SVGID_21_" gradientUnits="userSpaceOnUse" x1="421.6397" y1="423.1965" x2="421.6397" y2="388.548">
				<stop  offset="0" style="stop-color:#7D0A4A"/>
				<stop  offset="1" style="stop-color:#CB2756"/>
			</linearGradient>
			<path fill="url(#SVGID_21_)" d="M677.5,420.2l2.4,0.9v1.5h-9.2v-1.5l2.3-1l10.3-31.2h7.1l10.5,31.1l2.3,1.1v1.5h-11.9v-1.3
				l2.3-1.1l-2.1-6.6h-11.9L677.5,420.2z M680.5,410.8h10l-5-15.8h-0.1L680.5,410.8z"/>
		</g>
	</g>
</g>
</svg>
